/* XPM */
static char *_7940831441744469280[] = {
/* columns rows colors chars-per-pixel */
"64 64 256 2 ",
"   c black",
".  c #010101",
"X  c #020202",
"o  c gray1",
"O  c #040404",
"+  c gray2",
"@  c #060606",
"#  c #070707",
"$  c gray3",
"%  c #090909",
"&  c gray4",
"*  c #0B0B0B",
"=  c #0C0C0C",
"-  c gray5",
";  c #0E0E0E",
":  c gray6",
">  c #101010",
",  c #111111",
"<  c gray7",
"1  c #131313",
"2  c gray8",
"3  c #151515",
"4  c #161616",
"5  c gray9",
"6  c #181818",
"7  c #191919",
"8  c gray10",
"9  c #1B1B1B",
"0  c gray11",
"q  c #1D1D1D",
"w  c #1E1E1E",
"e  c gray12",
"r  c #202020",
"t  c gray13",
"y  c #222222",
"u  c #232323",
"i  c gray14",
"p  c #252525",
"a  c gray15",
"s  c #272727",
"d  c #282828",
"f  c gray16",
"g  c #2A2A2A",
"h  c gray17",
"j  c #2C2C2C",
"k  c #2D2D2D",
"l  c gray18",
"z  c #2F2F2F",
"x  c gray19",
"c  c #313131",
"v  c #323232",
"b  c gray20",
"n  c #343434",
"m  c #353535",
"M  c gray21",
"N  c #373737",
"B  c gray22",
"V  c #393939",
"C  c #3A3A3A",
"Z  c gray23",
"A  c #3C3C3C",
"S  c gray24",
"D  c #3E3E3E",
"F  c #3F3F3F",
"G  c gray25",
"H  c #414141",
"J  c gray26",
"K  c #434343",
"L  c #444444",
"P  c gray27",
"I  c #464646",
"U  c gray28",
"Y  c #484848",
"T  c #494949",
"R  c gray29",
"E  c #4B4B4B",
"W  c #4C4C4C",
"Q  c gray30",
"!  c #4E4E4E",
"~  c gray31",
"^  c #505050",
"/  c #515151",
"(  c gray32",
")  c #535353",
"_  c gray33",
"`  c #555555",
"'  c #565656",
"]  c gray34",
"[  c #585858",
"{  c gray35",
"}  c #5A5A5A",
"|  c #5B5B5B",
" . c gray36",
".. c #5D5D5D",
"X. c gray37",
"o. c #5F5F5F",
"O. c #606060",
"+. c gray38",
"@. c #626262",
"#. c gray39",
"$. c #646464",
"%. c #656565",
"&. c gray40",
"*. c #676767",
"=. c #686868",
"-. c DimGray",
";. c #6A6A6A",
":. c gray42",
">. c #6C6C6C",
",. c #6D6D6D",
"<. c gray43",
"1. c #6F6F6F",
"2. c gray44",
"3. c #717171",
"4. c #727272",
"5. c gray45",
"6. c #747474",
"7. c gray46",
"8. c #767676",
"9. c #777777",
"0. c gray47",
"q. c #797979",
"w. c gray48",
"e. c #7B7B7B",
"r. c #7C7C7C",
"t. c gray49",
"y. c #7E7E7E",
"u. c gray50",
"i. c #808080",
"p. c #818181",
"a. c gray51",
"s. c #838383",
"d. c #848484",
"f. c gray52",
"g. c #868686",
"h. c gray53",
"j. c #888888",
"k. c #898989",
"l. c gray54",
"z. c #8B8B8B",
"x. c gray55",
"c. c #8D8D8D",
"v. c #8E8E8E",
"b. c gray56",
"n. c #909090",
"m. c gray57",
"M. c #929292",
"N. c #939393",
"B. c gray58",
"V. c #959595",
"C. c gray59",
"Z. c #979797",
"A. c #989898",
"S. c gray60",
"D. c #9A9A9A",
"F. c #9B9B9B",
"G. c gray61",
"H. c #9D9D9D",
"J. c gray62",
"K. c #9F9F9F",
"L. c #A0A0A0",
"P. c gray63",
"I. c #A2A2A2",
"U. c gray64",
"Y. c #A4A4A4",
"T. c #A5A5A5",
"R. c gray65",
"E. c #A7A7A7",
"W. c gray66",
"Q. c #A9A9A9",
"!. c #AAAAAA",
"~. c gray67",
"^. c #ACACAC",
"/. c gray68",
"(. c #AEAEAE",
"). c #AFAFAF",
"_. c gray69",
"`. c #B1B1B1",
"'. c #B2B2B2",
"]. c gray70",
"[. c #B4B4B4",
"{. c gray71",
"}. c #B6B6B6",
"|. c #B7B7B7",
" X c gray72",
".X c #B9B9B9",
"XX c gray73",
"oX c #BBBBBB",
"OX c #BCBCBC",
"+X c gray74",
"@X c gray",
"#X c gray75",
"$X c #C0C0C0",
"%X c #C1C1C1",
"&X c gray76",
"*X c #C3C3C3",
"=X c gray77",
"-X c #C5C5C5",
";X c #C6C6C6",
":X c gray78",
">X c #C8C8C8",
",X c gray79",
"<X c #CACACA",
"1X c #CBCBCB",
"2X c gray80",
"3X c #CDCDCD",
"4X c #CECECE",
"5X c gray81",
"6X c #D0D0D0",
"7X c gray82",
"8X c #D2D2D2",
"9X c LightGray",
"0X c gray83",
"qX c #D5D5D5",
"wX c gray84",
"eX c #D7D7D7",
"rX c #D8D8D8",
"tX c gray85",
"yX c #DADADA",
"uX c gray86",
"iX c gainsboro",
"pX c #DDDDDD",
"aX c gray87",
"sX c #DFDFDF",
"dX c gray88",
"fX c #E1E1E1",
"gX c #E2E2E2",
"hX c gray89",
"jX c #E4E4E4",
"kX c gray90",
"lX c #E6E6E6",
"zX c #E7E7E7",
"xX c gray91",
"cX c #E9E9E9",
"vX c #EAEAEA",
"bX c gray92",
"nX c #ECECEC",
"mX c gray93",
"MX c #EEEEEE",
"NX c #EFEFEF",
"BX c gray94",
"VX c #F1F1F1",
"CX c gray95",
"ZX c #F3F3F3",
"AX c #F4F4F4",
"SX c gray96",
"DX c #F6F6F6",
"FX c gray97",
"GX c #F8F8F8",
"HX c #F9F9F9",
"JX c gray98",
"KX c #FBFBFB",
"LX c gray99",
"PX c #FDFDFD",
"IX c #FEFEFE",
"UX c white",
/* pixels */
"L.d.l.n.6.4.5.7.6.7.5.5.7.6.4.6.4.6.6.1.l.z.c.c._.|. X|.{. XXX).| ` _  .|.XX}.'.c.k.k.b.5.6.6.5.5.4.9.6.4.2.6.4.0.4.3.0.x.c.l.F.",
"%.R ! ~ x g f h d f d s f d s f f g f f Y ! ^ Q k.m.M.M.n.M.N.j.o   . : k.M.N.n./ ~ ~ ~ l g g f h f s f g l h d y d h z ~ Q Q -.",
"3.] | { Z b v m M B N M B N M B N m n M ` ....} n.A.S.S.A.S.S.b.2 % $ > Z.S.C.v.} }  .} C m M M b m b M n M m B M V M M o.| / ,.",
"<.) ] _ Z b v n g k k j k k j k l k k c R / ) / m.Z.A.A.C.Z.A.v.: X @ , N.Z.S.m./ / ( ! m c x l V V M v N x l v c v z m [ X._ 3.",
"<.) [ [ W T R E 7.q.q.0.q.w.0.q.9.9.9.9.a.d.d.d.B.A.Z.Z.C.Z.S.n.k e i z M.C.D.M.f.d.d.s.9.0.8.2.8 , 1 8 T W ^ Q E W E Y D H N { ",
"1.) [ | { }  . .A.H.J.G.H.J.H.H.K.P.L.H.H.D.D.F.Z.D.A.Z.C.A.D.M.F b M K M.Z.D.V.S.A.D.G.D.L.J.C.< X O : ` } X.] { }  .' x b h ^ ",
"1.( ` ` ` _ _ ) v.B.V.B.V.V.B.B.N.B.V.V.V.V.V.Z.C.A.C.C.V.C.A.n.V x c S m.C.C.C.Z.C.Z.V.V.A.V.z.< + + : ) ' [ ' ' ) [ ( c M l ( ",
"<.) [ [ | | ....V.G.H.F.G.H.G.G.L.K.J.K.H.H.G.F.F.H.G.H.G.G.H.V.N z j B S.H.D.G.S.F.H.D.D.G.D.m.; O . ; ! _ _ ` [ ` | ~ n b g ! ",
"1.) ] ` g 8 y 0 I ( ~ ! ^ Q ^ ~ M x c l T ^ W ! E Q ~ ~ R ( E _ 9.e.e.7.^ ~ ^ ~ ;.-.-.-.;.;.-.=.H K G U a.k.j.i.] { ] ` ~ W T %.",
":.( | ] >   O @ a c l k l h l k +       d c k z c z k l k c f b N.K.U.v.N s h n ) ) ( ) ) ) ( ( | |  .o.D.F.J.N.[ ] ` ] } | ] 4.",
"4./ ' | 4 $ * $ z M n b n b n n < = % # z n c b v n n n m n v G m.B.V.c.N b m m { [ [ { { { { [ } _ _ { A.S.F.l.' [ [ ' ] _ / <.",
";._  .( <   X # x v v v b b n n * X   = g B N n c M b k m x j n B.F.H.b.C z v N ] ] ] ] [ [ [ ] } ' [ @.V.G.L.B.] { [ ' | ' ) 3.",
"1.( '  .1.w.w.6.^ Q ! ! ! ! ! ~ I U Y P 4 = : 2 U ~ Q / 0.s.i.t.*.$.@.#.W ~ ! T A A Z A A S A A A F Z S R T E Y D C V F ] [ _ ,.",
",._ ] [ m.L.K.G.+.{ } } [ } [ {  .{ ' { < # @ O ~ | { X.M.K.J.C.{ ] ' ` [ [ [ ' c c x x c c c c z n z v z z c v v x x B ' [ ` 2.",
">.` } ) n.A.Z.D.O.` ] ] ` [ ' ] ` ] ] | < O # % E { ] [ b.V.Z.m.} ] ] _ ] _ ` ( m n b b n n n n N M v m b v b x v v n V ' _ / 1.",
"1.( ] _ m.D.C.S.o.) ' ] ' } [ { [ } ] ] 4 X O @ / } ` { C.D.F.V.o.[ [ [ { { { ) b v c c c v v c x x v b v l m c v z x N } { ` 2.",
"2.^ ' { c.F.H.V.l.c.j.v.W n A C Z A Z M x h g g V Z A D J I U I C Z V S N Z N P s.f.f.d.d.d.f.f.d.s.d.f.s.d.f.d.g.s.j.6.3 6 > M ",
",._ [ [ c.A.A.A.H.F.V.H.Q v m x z z c v b m M m x x x z z c x l l b v c b v z J A.D.F.D.S.D.F.D.F.S.D.F.S.D.F.D.S.C.Y.t.$ +   d ",
"1._ ` ] n.G.Z.Z.B.C.Z.L.Y j v b M b v n v n v z m m m n b n b v v m x l M n l S V.Z.Z.C.C.Z.Z.C.A.C.Z.A.C.Z.A.C.D.V.G.a.  :   d ",
"<./ ' | z.A.Z.Z.A.F.A.C.Q x v v v x c M c b b b c c c c v b n n v m n N x n v G V.Z.Z.Z.Z.Z.Z.C.Z.V.C.Z.V.C.C.B.Z.m.H.h.O $ o a ",
"` n A N K J P K { O.O.#.` ~ ` ) ( ( / ~ C m b n b b b b b b n n ~ ) / W < : = 8 O.@.@.@.@.@.@.O.P K L P K L L H 0 i q y T E J =.",
"! f n x z k v l ) } ] ( { ' { ' ' ] ] ' B c c n n b b b v c v n ' { { _ + O o ; _ ` ` ` ` ' _ ( c z x c z x z j .     > } { { 2.",
"' c N m B M M b _ } } ' ] ' { [ [ [ { { B v c n m n n m n n m N _ ] ' / % % # < ] [ [ [ [ { ] ` N m m M m m m c $ ; # 7 ` ] ~ ,.",
"Y g z j v z k v ' ' ] | ` ] ] ` ] ' ` ] B n v n z l l l l k l x ( { { Q % .   : ' ] ] ] [ [ ] _ c l z x z z l h .   . = [ o.] 3.",
"x.8.r.e.w.e.t.e...` | ` ..o.X.O.} ' ` ] B b c n 4.i.e.e.r.q.i.q.{ ] [ ) L H D K ] ' ] [ ] ` ' | w.t.t.e.t.y.r.e.2.;.4.#.7 q 5 S ",
"^.C.H.H.G.G.H.F.o.` [ ' +.%.%.%.] ' ] [ C m n V m.K.F.G.H.D.K.A.| ' } { [ { } | ' ` ' [ ] ` ] | D.J.H.G.J.J.G.G.L.G.Y.d.% o . p ",
"T.b.C.C.C.C.C.B.#.] ] ] X.@.+.X.{ [ ] ' N z l b l.Z.V.C.Z.B.Z.m.o.` { ` [ ] [ _ ' ` ' [ ] ' [ | B.C.C.V.Z.Z.V.C.V.S.S.r.$ % X f ",
"~.N.S.D.S.S.D.A.| _ ]  .O.$.=.*.} { [ ` S M m B m.F.D.F.G.D.F.Z...` | | ' }  .| ] ] ] [ [ ] [ | A.D.D.S.D.D.S.F.V.Z.P.s.#   O d ",
"e.@.*.*.*.*.=.*.| ] ] ` I S D A A Z A S v c c n I W W E Q E E E H D S V 0 9 6 0 A Z A A A Z A S T W E R W E R Q -.-.&.+.P U A o.",
":.^ _ _ ) ) _ ` ] ] [ ' A z c c v x x b c v b n j z l k l l k z z x c l O + o = v v v v c c c c k l l k z k l c ` W ( [ { X.| 5.",
"2.` [ { [ ] [ [ ' ] ] [ A x n n m b c v b b v v m M M n m m b M n b N c % # % > b b b b b n n b n m m m m n m V ]  .} )  .' ! <.",
",.( ' ] ] ` ` _ ' ' _ [ A c N m b c x c b b b v b b n v b b z b m x m h % o + $ x c c c c v v v x v c c v x c M ` ' [ ) ` ] ` >.",
"1.^ { ' a.n.l.l.l.z.j.n.h = , = ,.h.s.g.A b m x ~ ^ ^ ^ ~ ^ ~ ! ! ) / / r.w.9.t.s.s.s.a.d.d.f.d.a.s.s.d.p.p.g.d.l.v.j.l.c.l.k.G.",
"1./ { ' m.J.S.F.D.S.S.L.a . + . e.U.H.J.J l m N ) ] { { [ { }  .} { ' X.D.L.H.H.J.G.F.F.F.D.D.A.G.G.G.H.F.F.H.F.F.H.G.D.J.Z.A.Q.",
"1._ } _ b.Z.N.C.C.M.Z.L.p X # o r.P.N.A.P x b z _ [ } ] ' _ ` ' [ ' _ } B.Z.V.V.C.B.V.A.C.A.S.A.C.B.V.V.C.V.V.B.D.V.V.N.F.C.V.P.",
"2.~ _ | v.H.S.C.B.C.D.B.s . @ @ 8.F.S.M.L j b Z ) ` ` ( } [ ] ] [ { } X.C.C.Z.D.A.Z.S.G.B.V.C.Z.A.Z.A.Z.A.A.C.F.D.C.A.A.V.Z.Z.R.",
">.` X.] I F G P Y K K E c h l p H L I U m M v x V V V A ( ' ` ) 5 , , 7  .o.o.X.O.O.o.X.T L L P K J L J J J H Q Z.S.Z.c.#.O. .7.",
",.^ ` ` M c x k f l z z v x M M b h v l v N v v v x x n _ { [ _ - O O = _ ] ] _ ' ' ' _ M z l c x z b z x x l F C.D.A.c._ ' ^ <.",
"<.` | } C x b n b M c z M b v b m b N v b b c M m b b n ` [ ' ( * O # ; ` ' } } ` ` ' ' N v c m n c m v n n z J D.S.A.x.` [ ( :.",
">._ ] ( D x b m b M n M m v x N v n c n m n b m v b n m ` ' ' _ : @ $ ; ` _ ] ` { [ [ { B n v m M v M b N M z H C.B.F.x.' ] ` <.",
"1.) { ` _ ^ ) ) s.x.k.c.R l m m n c n b e.c.z.l.k.j.z.h.D c Z m & O & - v B B H c.v.v.c.z.l.l.l.z.x.z.d.] ) ) ) O.o...+.` [ ) 2.",
"<.) ' ] ] { ' [ N.G.D.J.R l v c c v b m h.H.A.D.J.S.S.V.D c M h * @ @ % v n x F A.S.D.D.S.S.S.D.C.A.D.N.{ ] { } [ ] _ ' ] { ~ :.",
",.' { { ' [ ) } v.V.V.F.Y v m c n m v m j.H.B.S.B.B.S.V.V k n x & $ o % v v j D V.C.C.Z.Z.Z.Z.A.D.S.S.N.{ ' ] ` _ ' ] ] [ } ( 3.",
"<./ _ ~ | | ` } v.S.D.B.R l b N b c b B p.C.m.V.C.V.C.z.J v b v * - = 1 b N N H B.B.V.B.B.B.B.B.m.C.Z.z.+.' ]  . .{ } X.E ] ~ >.",
"x $ , 2 R [ ] ] |  .[ o.[ ) _ ( S b n x { #...| } [ ..X.^ / _ ] x.x.z.j.b.b.b.j.X.X.X....... . .o.| | %.l.B.N.n.v.N.V.r.3 ; & b ",
"g   # @ Q | } [ _ } ' _ } ) '  .Z z m v ! ' ` ( [ ` ' ( } { ]  .A.F.J.G.A.G.L.M.' ' ` ` ' ' ' ` ' ] [  .V.Z.Z.S.F.S.D.p.+ +   p ",
"f   % @ R [ _ [ [ { ` ` | [ ] { B x m n ( | { | ] ] | ' [ [ ` X.N.D.S.A.C.A.F.b.{ [ ] ] [ [ [ [ { ' `  .A.F.S.A.S.D.K.s.@ # X h ",
"z + & & W ..( ' _ ` _ [ _ ` ` ` C n b c ) [ ^ ' ` ( ' ' ) [ _ { N.G.C.Z.S.A.A.N.' ` _ _ _ _ _ ) ` ( ) ..v.N.M.m.n.M.Z.r.- ; @ l ",
"-.W / ^ S c m M M N v b N b N n n b b x N c V b m M n b N b n A M.G.Z.A.C.Z.G.x.B b M M n N m n m N M M V C V V Z B V Z ` / ! =.",
"2._ } } C x n b c c c M c c M v b M m n m x n c v b c v m b b C b.S.C.C.V.C.S.l.n v m b x v x c v b c x b b c v n v m Z [ { ] 3.",
"1.~ ` ] N v v l M c c m z b v k m n v v M n c x n n v n v c v N N.G.D.F.S.D.G.v.b b M v n n b N b n v v b v c v c l c N ( ` ( ;.",
",._ ..` H V Z S b v M c B A S H x j c h m b m Z b n m B x c n V k.v.c.c.x.c.b.s.c x x h m m x b m M m M N M M B A A F P } X. .5.",
"1.Q _ | z.D.A.N.H v x m t.C.m.n.u + $ = T { [ ~ { [ ' / B v v b m B N M m N B z $ # % - j m b M ` ' ' ' [ ] ] | B.B.M.n.Z.B.c.I.",
"<.( } ` b.S.Z.A.S x v l s.F.Z.L.y   % + T ' { ] ' ' [ ` m c b n b b b c x b b k & # @ & x B b m ` ' ' ] [ ` ' | V.Z.A.Z.S.D.B.Q.",
"2./ { ` b.J.S.Z.J c v k i.F.M.A.p   # O R } ' ' ] ] { ] b c b v m b m b v m b z @ + O @ x N v N ] [ [ [ { ' ] ..Z.S.A.Z.C.A.M.T.",
"<.~ } { j.G.A.V.H z m b e.G.M.A.u   % $ Y | ) ] ' ` ] ] b b m v m v m n b M b z % * & % b N b C ` ' ' ] [ ` ' ..B.V.B.V.B.S.M.Y.",
"<.( { {  .+.o.X.) ^ ~ ' F H H J v l l h B M N N Z m V B b v N n ^ _ / ^ ` / ^ } s.d.g.f.k.z.z.j...' [ ] m B B B G D F K +.X.| 9.",
",.( [ ' ' ] ` `  .} { { C n x c m b N n b v b n c b m b c z v N ` { [ ] } ] ] +.F.F.D.D.D.F.D.C. .' [ _ v b v b x l z M ` ` ( 1.",
"1.) } [ ] [ ' [ ) ` ] ] Z m b M n x m v b n v c c b z v n m b N ( ] ] ' [ ` ' o.C.C.C.A.Z.S.A.V.} ` ] ( b v c n n v b V ` ' ( <.",
">.^ ' ` ` ] ` ] ' ] [ ` S M b n v c M d C N M C M M m Z c m n M _ ] ] ] [ ' ] ..V.V.C.Z.b.m.m.b...[ [ / B n c b n n M S _ ] ' 4.",
"_ n B N B C M N m m N C v v b n 4 $ & > 8.m.v.l.n.v.b.l.| _ ` ` [ [ ] ] [ ] ] { | | } [ K F S S m b M N x n n V ` _ ) ( | ] ) <.",
"~ l c x v n x x n v c b v n n v ; O @ @ a.G.F.H.D.Z.F.S. .] } [ [ ' ` ` ' ' ' ` ] [ ] _ N c z c m b n b v n v N ` ] ] ] } [ ` 4.",
"~ z b v n m b n b v c v v n n b 3 @ # + p.H.C.N.A.C.V.V.} ] _ _ { [ [ [ ] [ { ] ' ] ] ' B n b m v v b c n m v V { } { [ ] ' ( ,.",
"^ x n b b b c n v b n b b b n n : o % & y.H.A.C.B.D.A.C. .] ) | ' ' ] ] ` ' [ ] [ ] ] ] N n v b b n m c m n c V ' ] ' ] ] [ _ 2."
};
