/* XPM */
static char *_efefa08355d4d36d8116ed0ad90d192qc2vGv7Llmg8qqR3[] = {
/* columns rows colors chars-per-pixel */
"64 64 184 2 ",
"   c #6F6F6F",
".  c #6F7071",
"X  c #757575",
"o  c #7C7C7C",
"O  c #767778",
"+  c #807F7F",
"@  c #3391BC",
"#  c #6E8C89",
"$  c #7F8080",
"%  c #7E8B8A",
"&  c #718987",
"*  c #7F9391",
"=  c #7EAFAA",
"-  c #79B1AB",
";  c #66BDB4",
":  c #7CB8B2",
">  c #5DC5BA",
",  c #45C7BA",
"<  c #61C1B7",
"1  c #6DC4BB",
"2  c #3796C1",
"3  c #3896C1",
"4  c #3D9CC7",
"5  c #3F9EC9",
"6  c #1FA6E4",
"7  c #44A3CE",
"8  c #46A5D0",
"9  c #48A7D2",
"0  c #4CABD6",
"q  c #2AD3C1",
"w  c #2DDCCA",
"e  c #35DDCB",
"r  c #3ADCCC",
"t  c #37D3C3",
"y  c #0EEFD8",
"u  c #1EEFDA",
"i  c #0DF0D9",
"p  c #19F4DD",
"a  c #22E9D5",
"s  c #26EED9",
"d  c #3CE4D2",
"f  c #34E9D6",
"g  c #01FFE5",
"h  c #0AFCE3",
"j  c #00FFE8",
"k  c #0FFFE8",
"l  c #12FEE6",
"z  c #11FFE9",
"x  c #18FBE4",
"c  c #33FFEA",
"v  c #3FFFEC",
"b  c #4ACFC1",
"n  c #50CDC0",
"m  c #47D4C5",
"M  c #5AD6C9",
"N  c #6BCBC1",
"B  c #63D6CA",
"V  c #42E2D2",
"C  c #67EBDF",
"Z  c #79EADF",
"A  c #45FFED",
"S  c #4BFEED",
"D  c #4BF4E4",
"F  c #57FFEE",
"G  c #58FFEE",
"H  c #7FEFE5",
"J  c #75EEE2",
"K  c #7DFAED",
"L  c #72FFF2",
"P  c #7EFFF3",
"I  c #848484",
"U  c #888787",
"Y  c #848C8B",
"T  c #8B8B8B",
"R  c #918E8F",
"E  c #84908F",
"W  c #8C9292",
"Q  c #819997",
"!  c #859C9A",
"~  c #8E9998",
"^  c #819190",
"/  c #949494",
"(  c #989797",
")  c #949B9A",
"_  c #9B9B9B",
"`  c #969798",
"'  c #A09F9F",
"]  c #93A09F",
"[  c #9AA09F",
"{  c #9E9FA0",
"}  c #86A9A6",
"|  c #85AFAB",
" . c #9BA4A3",
".. c #9FA8A7",
"X. c #9AADAB",
"o. c #88B1AD",
"O. c #99B1AF",
"+. c #94B1AE",
"@. c #87BDB8",
"#. c #99B5B2",
"$. c #9AB9B6",
"%. c #9FBBB8",
"&. c #97BFBB",
"*. c #A3A3A3",
"=. c #A8A7A7",
"-. c #A6A9A9",
";. c #AEAEAE",
":. c #B1AEAE",
">. c #AEB0AF",
",. c #A5B1AF",
"<. c #AEAFB0",
"1. c #B0AFB0",
"2. c #A6B3B2",
"3. c #ADB1B0",
"4. c #A3BDBA",
"5. c #B0B0B0",
"6. c #B9B9B9",
"7. c #87C0BB",
"8. c #88C1BB",
"9. c #97C1BD",
"0. c #9DC1BD",
"q. c #8DCCC6",
"w. c #96CBC6",
"e. c #97C6C2",
"r. c #8BD3CC",
"t. c #9BD1CC",
"y. c #99D6D1",
"u. c #94DCD5",
"i. c #9ED8D3",
"p. c #88DBD4",
"a. c #BFC0C0",
"s. c #A0D2CE",
"d. c #A1D6D1",
"f. c #BDD8D6",
"g. c #93E5DE",
"h. c #9BE3DD",
"j. c #ABE1DC",
"k. c #8EEFE6",
"l. c #86EAE0",
"z. c #93EAE2",
"x. c #9FEEE6",
"c. c #8EF0E7",
"v. c #81FBEF",
"b. c #92F3EA",
"n. c #90F9EF",
"m. c #80FFF3",
"M. c #8FFFF6",
"N. c #91FAF1",
"B. c #91FFF5",
"V. c #91FFF7",
"C. c #92FFF6",
"Z. c #92FEF5",
"A. c #98FFF6",
"S. c #91FFF8",
"D. c #B1E9E4",
"F. c #B3F3ED",
"G. c #A9FFF7",
"H. c #AAFFF8",
"J. c #B6FFF9",
"K. c #B8FFFA",
"L. c #C1C1C1",
"P. c #CFCFCF",
"I. c #CDCDCD",
"U. c #C3DDDB",
"Y. c #D1D1D1",
"T. c #DCDBDC",
"R. c #DDE1E1",
"E. c #C6FFF9",
"W. c #CAFFFA",
"Q. c #C8FFF9",
"!. c #C1F6F0",
"~. c #D2FAF6",
"^. c #D7FFFD",
"/. c #DAFFFC",
"(. c #D8F4F1",
"). c #E3E2E2",
"_. c #EAEAEA",
"`. c #E7FFFE",
"'. c #EAFFFD",
"]. c #F4F4F4",
"[. c white",
"{. c #FEFFFF",
"}. c #FDFFFF",
"|. c #FEFEFE",
/* pixels */
"6 7 7 7 4 2 2 2 2 2 2 2 2 2 2 2 2 2 2 2 4 4 4 4 9 0 0 0 0 0 0 9 @ @ @ 3 0 0 0 9 7 7 7 7 7 7 7 7 7 7 7 7 7 7 7 7 7 7 7 7 7 7 7 6 ",
"7 _ _ _ T o o o o o o o o o o o o o o o I T T T *.3.<.;.;.;.;.*.O . . o ;.<.<.-._ _ _ _ _ _ _ _ _ _ _ _ _ _ _ _ _ _ _ _ _ _ _ 7 ",
"7 _ _ _ T o o o o o o o o o o o o o o o U T T T *.5.;.;.;.=.;.*.O X   o ;.;.;.=._ _ _ _ _ _ _ _ _ _ _ _ _ _ _ _ _ _ _ _ _ _ _ 7 ",
"7 _ _ _ T o o o o o o o o o o o o o o o U T T T *.5.;.;.;.=.;.*.O     o ;.;.;.=._ _ _ _ _ _ _ _ _ _ _ _ _ _ _ _ _ _ _ _ _ _ _ 7 ",
"7 _ _ _ / T T T / ( ( ( ( ( ( ( ( ( ( ( _ _ _ _ *.*.*.*.*.*.*._ T U U R ;.;.;.;.*.*.*.*.*.*.*.*.T T T T _ _ _ _ _ _ _ _ _ _ _ 7 ",
"7 _ _ _ _ _ _ _ =.5.5.5.5.5.5.5.5.5.5.5.5.5.5.;.*._ _ _ _ _ _ _ _ _ _ *.;.;.;.;.;.;.;.;.5.5.5.=.I o o I _ _ _ _ _ _ _ _ _ _ _ 7 ",
"7 _ _ _ _ _ _ _ =.;.;.;.;.;.;.;.;.;.;.;.;.;.;.;.*._ _ _ _ _ _ _ _ _ _ _ ;.;.;.;.;.;.;.;.5.5.;.=.I o o I _ _ _ _ _ _ _ _ _ _ _ 7 ",
"7 _ _ _ _ _ _ _ =.;.;.;.;.;.;.;.;.>.>.>.;.;.;.;.*._ _ _ _ _ _ _ _ _ _ _ ;.;.;.;.;.;.;.;.5.3.;.=.I o o I _ _ _ _ _ _ _ _ _ _ _ 7 ",
"7 _ _ _ / U U U _ *.*.*.*.*.*.*.%.h.h.h.0.*.*.*._ _ _ _ _ _ _ _ *.=.=.*.T T T ( *.*.*.*.*.*.*...q.r.r.r.u.u.u.e._ _ _ _ _ _ _ 7 ",
"7 _ _ _ T o o o / _ _ _ _ _ _ _ 9.V.V.V.w._ _ _ _ _ _ _ _ _ _ _ ;.5.5.*.o o o U _ _ _ _ _ _ _  .b.S.V.V.V.V.S.u._ _ _ _ _ _ _ 7 ",
"7 _ _ _ T o o o / _ _ _ _ _ _ _ 9.V.V.V.w._ _ _ _ _ _ _ _ _ _ _ ;.:.1.*.o o o U _ _ _ _ _ _ _  .b.V.V.V.V.V.V.u._ _ _ _ _ _ _ 7 ",
"7 _ _ _ T o $ o / _ _ _ _ _ _ _ &.N.N.N.e._ _ _ _ _ _ _ _  .[  .,.2.2...I o o U _ _ _ _ _ _ _  .z.N.n.n.n.n.N.u._ _ _ _ _ _ _ 7 ",
"7 _ _ _ *.*.*.*._ _ _ _ _ _ _ _  .O.O.O.~ I I I / _ _ _ y.z.z.l.f s s r ~ / ( T I I I I I I I I ! ! ! ! Q Q Q ^ I I I T _ _ _ 7 ",
"7 _ _ _ *.5.5.5.*._ _ _ _ _ _ _ _ _ _ _ T o o o / _ _  .z.V.V.P k g g a ) _ _ / o o o o o o o o I I I + o o o o o o o T _ _ _ 7 ",
"7 _ _ _ *.;.;.;.*._ _ _ _ _ _ _ _ _ _ _ T o o o / _ _  .z.V.V.m.z g g a ) _ _ / o o o o o o o o I I I I o o o o o o o T _ _ _ 7 ",
"7 _ _ _ *.;.;.;.*._ _ _ _ ( ( ( ( ( ( _ T o o o T _ ( ) u.c.k.H u y i w ) ( _ / I I I I I I I I U U U U I I I I I I I T _ ( ` 7 ",
"7 _ _ _ *.;.;.;.;.;.;.=.T o I I I I I I o o o o o I I I % % % % # # # & $ I o T =.=.=.=.=.=.=.=.=.=.=.=.=.=.=.=.=.=.=.( o I $ 3 ",
"7 _ _ _ *.;.;.;.;.;.;.;.U o o o o o o o o o o o o o o o o o o o o o o o o o o T ;.;.;.;.;.;.;.;.;.<.5.3.;.;.;.;.;.;.5.( o o o 2 ",
"7 _ _ _ *.;.;.;.;.;.;.;.U o o o o o o o o o o o o o o o o o o o o o o o o o o T 5.3.;.;.;.;.;.;.;.;.3.3.;.;.;.;.;.;.5.( o o o 2 ",
"7 _ _ _ *.5.5.5.;.;.;.;.U o o o o o o o o o o o o o o o o o o o o o o o o o o T ;.;.;.:.;.;.;.;.;.;.3.5.5.;.;.;.5.5.5.( o o o 2 ",
"4 T T T / ( ( ( _ *.*.*./ T T T T T T T *.L.L.a.9.7.7.@.~ T T T T T T T o o o _ T.T.T.f.i.i.i.s.-.*.*.*.*.*.*._ ( ( ( / T T T 4 ",
"2 o o o o o o o / _ _ _ _ _ _ _ _ _ _ _ Y.[.[.[.K.M.V.N.#._ _ _ _ _ _ ( o o o =.[.[.[.Q.M.V.V.b. ._ _ _ _ _ _ / o o o T _ _ _ 7 ",
"2 o o o o o o o / _ _ _ _ _ _ _ _ _ _ _ P.[.[.[.J.M.V.N.O._ _ _ _ _ _ ( o o o =.[.[.[.Q.V.V.V.b. ._ _ _ _ _ _ W o o o T _ _ _ 7 ",
"2 o o o o o o o / _ _ _ _ _ _ _ _ _ _ _ P.[.[.[.J.M.V.N.O._ _ _ _ _ _ ( o o o =.[.[.[.Q.V.V.V.b. ._ _ _ _ _ _ / o o o T _ _ _ 7 ",
"7 _ _ _ _ _ _ _ _ _ _ _ P.T.T.T.U.u.u.u.J F G F v c c c f e e m X.=.=.*./ / R : G G F A./././.(.3.=.=.=.=.=.=.*._ _ _ / U U U 4 ",
"0 3.5.5.5.5.5.5.*._ _ *._.[.[.[.^.V.V.V.A g g g g g g g g g g x $.:.5.=._ _ _ ; g g g P [.[.[.].6.;.;.;.;.;.;.5.5.5.5.( o o o 2 ",
"0 <.;.;.5.;.;.;.*._ _ *._.[.[.[.^.V.V.V.A g g g g g g g g g g p $.:.;.=._ _ _ ; g g g P [.[.[.].6.;.;.;.3.3.;.;.;.;.5.( o o o 2 ",
"0 ;.;.;.;.;.;.;.*._ _ *.).|.|.|.~.N.N.N.S h h h h h h h h h h u #.;.;.=._ _ _ ; h h h K |.|.|.].6.;.;.;.;.;.;.;.;.;.;.( o o o 3 ",
"8 { _ _ _ _ _ _ _ _ _ _ ;.5.5.5.2.O.O.O.o.- - - - - - - - - - =  .' *._ U I I * - - - +.5.5.5.;.*.' _ *._ _ _ _ _ _ *._ ( ( / 7 ",
"7 _ _ _ _ _ _ _ _ _ _ _ _ _ _ _ _ _ _ _ _ _ _ _ _ _ _ _ _ _ _ _ _ _ _ ( o o o U _ _ _ _ _ _ _ _ _ _ _ _ _ _ _ _ _ _ _ _ _ _ _ 7 ",
"7 _ _ _ _ _ _ _ _ _ _ _ _ _ _ _ _ _ _ _ _ _ _ _ _ _ _ _ _ _ _ _ _ _ _ / o o o U _ _ _ _ _ _ _ _ _ _ _ _ _ _ _ _ _ _ _ _ _ _ _ 7 ",
"7 _ _ _ *.=.*.*... . . ._ ( ( ( _ _ _ _ _ _ _ _ _ _ _ _ _ _ _ _ *.*.=. .Y % % W _ _ _ _ _ _ _ _ _ _ _ _ _ _ _ _ _ _ _ _ _ _ _ 8 ",
"7 _ _ _ I.].].].F.b.b.z.Q o I o / ;.;.;.*._ _ _ _ _ _ _ _ _ _ *._.].].(.z.k.c.y.;.;.;.;.;.;.;.;.;.;.;.;.;.;.;.;.;.;.;.;.;.;.;.0 ",
"7 _ _ _ P.[.[.[.J.M.V.N.Q o o o T ;.;.:.*._ _ _ _ _ _ _ _ _ _ *.].[.[.`.A.V.V.h.3.;.;.;.;.;.;.;.;.;.;.3.5.5.;.;.;.;.;.5.;.;.<.0 ",
"7 _ _ _ P.[.[.[.J.M.V.N.Q o o o T ;.;.5.*._ _ _ _ _ _ _ _ _ _ =.].[.[.'.A.V.V.h.:.:.:.:.;.;.;.;.;.;.;.;.5.;.;.;.;.;.;.;.;.;.<.0 ",
"7 _ _ _ L._._._.D.z.z.g.! I I I / =.=.=.*._ _ _ _ _ _ _ X.O.O.%.!.Q.Q.J.L L L Z 8.8.8.#.=.=.=.=.=.=.=.=.;.=.=.;.;.;.;.;.=.=.=.0 ",
"7 _ _ _ _ *.*.*. .[ [ [ _ _ _ _ _ _ _ _ _ _ _ _ _ _ _ [ g.N.N.v.x k k k h h h h h h h n _ _ _ _ _ _ _ _ _ _ _ *.;.;.;.*._ _ _ 7 ",
"7 _ _ _ _ _ _ _ _ _ _ _ _ _ _ _ _ _ _ _ _ _ _ _ _ _ _ [ z.V.V.P l g g g g g g g g g g b _ _ _ _ _ _ _ _ _ _ _ *.;.;.3.*._ _ _ 7 ",
"7 _ _ _ _ _ _ _ _ _ _ _ _ _ _ _ _ _ _ _ _ _ _ _ _ _ _ [ z.S.V.P z g g g g g g g g g g b _ _ _ _ _ _ _ _ _ _ _ *.;.3.5.*._ _ _ 7 ",
"7 _ _ _ _ _ _ _ *.*.*.*._ _ _ _ } ; ; ; | *.*.*.*.*.*.*.t.u.u.p.t q q q e e e r d d d 1 *.*.*.*.*.*.*.*._ _ _ *.=.=.=.*._ _ _ 7 ",
"7 _ _ _ _ _ _ _ =.;.;.;._ _ _ _ < g g g M :.;.;.:.:.;.;. ._ _ ` $ o o I _ _ _ *.;.>.>.;.;.;.;.;.;.;.;.=._ _ _ _ _ _ _ _ _ _ _ 7 ",
"7 _ _ _ _ _ _ _ =.;.;.;._ _ _ _ < g g g M :.;.;.5.:.;.;._ _ _ ( I o o I _ _ _ *.;.;.;.;.;.3.;.;.;.;.;.=._ _ _ _ _ _ _ _ _ _ _ 7 ",
"7 _ _ _ _ _ _ _ =.5.;.;.' _ _ _ < g g g M :.;.;.;.;.;.;._ _ _ ( o o o I _ _ _ *.;.;.;.;.;.;.;.:.:.:.:.;._ _ _ _ _ _ _ _ _ _ _ 7 ",
"4 T T T ( _ _ _ *.*.*.*._ _ _ _ = b b b : *.*.*.*.*.*.*._ _ _ _ ( ( ( _ *.*.*.*.*.*.*.4.d.d.d.y.B M M N *.*.*.*.*.*.*._ T T T 4 ",
"2 o o o T _ _ _ _ _ _ _ _ _ _ _ _ _ _ _ _ _ _ _ _ _ _ _ _ _ _ _ ;.5.5.5.;.;.5.=._ _ _ w.V.V.V.P k g g s 2.5.;.;.;.;.5.( o o o 2 ",
"2 o o o T _ _ _ _ _ _ _ _ _ _ _ _ _ _ _ _ _ _ _ _ _ _ _ _ _ _ _ ;.;.;.;.;.;.;.=._ _ _ w.V.V.V.m.l g g s 2.1.;.;.;.;.5.( o o o 2 ",
"2 o o o T _ _ _ _ _ _ _ _ _ _ _ _ _ _ _ _ _ _ _ _ _ _ _ _ _ _ _ ;.;.;.;.;.;.;.=._ _ _ w.V.V.V.m.l g g s 2.:.;.;.;.;.5.( o o o 2 ",
"5 W T T T T T U U U T T T T T T T T T U U U T T T T T T T T U W y.h.h.j.R.).).U.y.y.y.C c c c c h g g h d V V > W T T T T T W 5 ",
"7 _ _ _ T o o o o o o o o o o o o o o o o o o o o o o o o o o % c.V.M.H.}.[.[./.S.V.V.S g g g g g g g g g g j q o o o T _ _ _ 7 ",
"7 _ _ _ T o o o o o o o o o o o o o o o o o o o o o o o o o o % k.V.V.G.}.[.[./.V.V.V.S g g g g g g g g g g g q o o o T _ _ _ 7 ",
"7 _ _ _ T o o o o o o o o o o o o o o o o o o o o o o o o o o % c.V.M.H.[.[.[./.A.V.A.S g g g g g g g g g g j q o o o T _ _ _ 7 ",
"7 _ _ _ / U U U U U U T ( _ _ _ ~ Q Q Q E U U U U U U U U I I Y u.z.z.x.Q.Q.Q.G.L L L D a a a a a a a a a a a , U U U / *._ { 8 ",
"7 _ _ _ *.;.;.;.;.;.;.5._.|.|.|.~.n.n.N.t.;.;.;.;.;.;.;._ _ _ _ _  ._ - x k k k h h h b ) ] ] ] ] ] ] ] ] ] ]  .;.;.;.;.;.;.;.0 ",
"7 _ _ _ *.;.;.;.;.;.;.5._.[.[.[.^.V.V.V.d.:.;.;.;.;.;.;.*._ _ _ _ _ _ - h g g g g g g b _ _ _ _ _ _ _ _ _ _ _ *.;.;.<.;.;.;.<.0 ",
"7 _ _ _ *.5.;.;.;.;.;.5._.[.[.[.^.V.V.V.d.:.;.;.;.;.;.;._ _ _ _ _ _ _ - h g g g g g g b _ _ _ _ _ _ _ _ _ _ _ *.;.;.;.;.;.;.<.0 ",
"7 _ _ _ *.=.=.=.=.=.=.=.Y.T.T.T.U.u.u.u.0.=.=.=.=.=.=.*._ _ _ _ _ _ _ } r e e e d d d 1 *.*.*.*._ _ _ _ _ _ _ *.=.=.=.=.=.=.-.9 ",
"7 _ _ _ _ _ _ _ _ _ _ _ _ _ _ _ _ _ _ _ _ _ _ _ _ _ _ _ _ _ _ _ _ _ _ _ _ _ _ *.;.>.>.;.;.;.;.;._ _ _ _ _ _ _ _ _ _ _ _ _ _ _ 7 ",
"7 _ _ _ _ _ _ _ _ _ _ _ _ _ _ _ _ _ _ _ _ _ _ _ _ _ _ _ _ _ _ _ _ _ _ _ _ _ _ *.;.;.;.;.;.;.;.;._ _ _ _ _ _ _ _ _ _ _ _ _ _ _ 7 ",
"7 _ _ _ _ _ _ _ _ _ _ _ _ _ _ _ _ _ _ _ _ _ _ _ _ _ _ _ _ _ _ _ _ _ _ _ _ _ _ *.;.;.;.;.;.;.;.;._ _ _ _ _ _ _ _ _ _ _ _ _ _ _ 7 ",
"7 _ _ _ _ _ _ _ _ _ _ _ _ _ _ _ _ _ _ _ _ _ _ _ *.*.*.*.*.*.*.*._ _ _ _ _ _ _ _ *.*.*.*.*.*.*.*._ _ _ _ _ _ _ _ _ _ _ _ _ _ _ 7 ",
"7 _ _ _ _ _ _ _ _ _ _ _ _ _ _ _ _ _ _ _ _ _ _ _ =.5.;.;.;.;.;.;._ _ _ _ _ _ _ _ _ _ _ _ _ _ _ _ _ _ _ _ _ _ _ _ _ _ _ _ _ _ _ 7 ",
"7 _ _ _ _ _ _ _ _ _ _ _ _ _ _ _ _ _ _ _ _ _ _ _ =.;.;.;.;.;.;.;._ _ _ _ _ _ _ _ _ _ _ _ _ _ _ _ _ _ _ _ _ _ _ _ _ _ _ _ _ _ _ 7 ",
"7 _ _ _ _ _ _ _ _ _ _ _ _ _ _ _ _ _ _ _ _ _ _ _ -.<.<.<.<.<.<.;._ _ _ _ _ _ _ _ _ _ _ _ _ _ _ _ _ _ _ _ _ _ _ _ _ _ _ _ _ _ _ 7 ",
"6 7 7 7 7 7 7 7 7 7 7 7 7 7 7 7 7 7 7 7 7 7 7 7 9 0 0 0 0 0 0 0 7 7 7 7 7 7 7 7 7 7 7 7 7 7 7 7 7 7 7 7 7 7 7 7 7 7 7 7 7 7 7 6 "
};
