/* XPM */
static char *result[] = {
/* columns rows colors chars-per-pixel */
"64 64 87 1 ",
"  c #5B3F2A",
". c #5E422C",
"X c #5B492C",
"o c #5C552E",
"O c #5E4432",
"+ c #5D4E33",
"@ c #62442E",
"# c #614E2F",
"$ c #664730",
"% c #644B32",
"& c #6A4A32",
"* c #724F36",
"= c #625432",
"- c #615932",
"; c #735136",
": c #765339",
"> c #7A563B",
", c #7E593D",
"< c #765740",
"1 c #775840",
"2 c #7C5B43",
"3 c #68635E",
"4 c #6D6661",
"5 c #716963",
"6 c #815B3E",
"7 c #855E41",
"8 c #836045",
"9 c #8D6545",
"0 c #8E694C",
"q c #906747",
"w c #906847",
"e c #946A49",
"r c #9A6F4C",
"t c #9C714E",
"y c #946E50",
"u c #987152",
"i c #A47751",
"p c #A77853",
"a c #AC7C55",
"s c #B27F58",
"d c #847C77",
"f c #877F78",
"g c #887F79",
"h c #58832C",
"j c #588E2D",
"k c #54942A",
"l c #5E8A32",
"z c #5E9433",
"x c #5D9E33",
"c c #619736",
"v c #629937",
"b c #69953E",
"n c #659B3A",
"m c #699D3E",
"M c #61A037",
"N c #65A53B",
"B c #69A73E",
"V c #69A93F",
"C c #6B9740",
"Z c #6D9841",
"A c #6DA342",
"S c #6CAC42",
"D c #70A544",
"F c #70AF46",
"G c #7BA44C",
"H c #7CAF4F",
"J c #6FB045",
"K c #71B147",
"L c #75B44A",
"P c #79B64E",
"I c #79B84F",
"U c #7EB050",
"Y c #7CBC52",
"T c #B48159",
"R c #BA865D",
"E c #82A052",
"W c #86AF56",
"Q c #8AA659",
"! c #8EAB5E",
"~ c #83B453",
"^ c #80BF55",
"/ c #8EB65E",
"( c #8BBC5C",
") c #90B760",
"_ c #93BA63",
"` c #84C158",
"' c #92C262",
/* pixels */
"LLLLLKBNBBSSMMSSYYILSSNNSSxMkkSJKLILLKSNBBSSMMSSY^LLSBBBVVNxkkSS",
"LLLLLLSBBBAAMMSSIIILJSASNNNxkkBSKLLLLLSBBBABMMBSLYYLJSBBVNMxkkSS",
"LLJK~~HHPGoonBNMMS('((KJNMSSNNSSLLJS~~HHUG=omBMNMB`'((LJNNSSNNSS",
"LLAA/(HHWGXXnVvvxA(''(ILxzSNNBmALLAA((HH~GXXmBvvMB('_(YLxvBBBNmm",
"(~=-_'SSSmXXAAooDLY`'''/-ojxMzo=WW--_'FBSmXXAAooDLY`'''/-XjxMxoX",
"WE++!_CxBmXXCCXXALUU((/Q%XhjzlX=EE++!)bvVmXXCCXXALHU(()QXXhjzlX ",
"%+43=%OoAAX XX.XzvooAD-%;;XXXX*;+%43=%XoAAX XX Xcvo=AA-%;:XXXX*:",
"@$44% $%ZZ%.  .XllXXCC+O::$.  ;;$O44$@@=ZZ+@   XllXXCC+O::$   :>",
"99<<9qap=%99:::;..  X+34<6q7@ *699129wap=#99>::;XX  X+33>,98..:>",
"q9<7qrsa#@qw:::;     O34:6q7@ 67qq>:wtsa$@9q:::*     $33<,q9@@,,",
"7*@@qere>>wq$     *:;;O$*>*7:6aa7:.$qete>>qq@     *::*@O;:,>:,pT",
"77@@9eq972q9@.@$$$::6>&@:>6>:6as7>.$9ewq22q9$ $$@$:>6,&$;,,,>6aT",
"ap7*<7*<dd2,:>pasp76ssap7>qq*6qtsa>:>>>2dd2>:>paaa,6asap6>qq,,et",
"aa7*7778gQ2>:6aTsa>6ssss7*qq77qraa7>,627gg7>:7asTa>,aRTa6>qq,,ee",
"77*7assauyeq>>67rq@$erre7>7>qqeq7,>,asssuyeq>>77ew@$erre,>>6qeer",
"*7*7asssy0ee>::>99$$qeq9:>:>qqq9,>>,asTsrqee,:::w9$$wee9>>>>9www",
"qq**77qe66eq>:@@:6qqee6><*6*@@<7qq>>66rr67eq6:@ >,99ee6>>>>:@@>>",
"qq76*7qq6>99:* @:>qeeq>>777*@@*7qq6>::9q>>99:: @:,wwew>>666>@@>,",
"7679@@*7::@@.@*::>>>>>>6assa7<7q6>q9@@>>::$.  *:>>,,>>>6aTsa>>9w",
"*7qq@@*76>@@@&>>::6666:>aRsa77qq6>ee@.6666@ @&>>::,66,:>aTRa82we",
":>qq>*pssp>>pae9@$psTp$@qrruQd7>:>ee>6pssa>>pae9@@pssp$@euruQd2<",
"67q977ssRs77asrq$%aRTa$@9qeudd>:>6qq>6asss77aarq%&aRTa&@7qeydd<<",
"q97>:6etrrsa76e044rrre>;@$q02<@@9q6>>>errtaa77e045yrre>;$$qq8<  ",
"e9>:>7qqersa77q055wwwq6: @908<$&9q::>6qerrss77q0550wwq,:@@7977$$",
"6:@@9q66qertsa6>21>,>>>>::>6asaa6:@@9q6>eertsa7><<776>6**767pssa",
"::@$99>>qeqrss7>>:::66:::>67sTTa6:@@qq>>qqeess7<6:**67*:<*77psTs",
":6996>>>2266ereq>:@$pp& *6asttte6>9q6>>><267eree*:@$ii$@*7pstttt",
"66qq::66<<::qqq97>&&pp&@:6asteee6>qq>:66<<*<qeq776$&pp$@*7psrree",
"q96: $pa2*..>>$&psap7799>>66eeeeew,:.@pa7*  >*@&pssp7779*667eeer",
"eq>*$*aa7:..<< $aTRa6>qq6>>,qeqqew,>@*as7<@@<7 @pssa769q66*7qqqq",
"eq66patreq:<dd2>rrre>>>6qeeq6>@@we>6patreq:<dd<:ertr7**7qqeq66@@",
"re66astrq972dd2>99q9::12qeee>*@@qe>6astrq777dd769q99>*<7qqeq**@ ",
"ew>,etTa&@9q7,>:@.@@ O4526e9@.*>we>,etTp&$9q22>:@.@. $4416eq$ *:",
"e9>>ersa&@qe:;:*     O33:>q9@@,6w9>>wtTa$$qw>::*     X341>qq@@>6",
",>@@qeue>>wq$.@   *:::$O:>,>:,aa6:@@9rre>>wq$     *::;O@:>>>:>as",
"6>@@9ewq2209@ @@@$:>6>$$:>>>>6as9>@@9eww22q9@ $$@&:>66$$:>>>>6aR",
"Tp>:>>>2fd2>:>paap66pTsp6,9w>,etsp>:>>,2dd2>:>psap66pTsp6>qq>>rr",
"Ta,>6667ff7>>6asRa>,sTTa6>qq6,wraa6>66,8gg7>>6asRa,,sTTa6>qq66ee",
"66>6assauyw0>>66re@@erte>>>6qeee66>,pTTaryeq>>66ew@@wtre,>>6qeer",
">>>,aTTsrwrw,:::99$$9rww>>>>9wwq,,>6aTTseeee6:::09$$qeeq>>:>9qeq",
"eq>>66re6,ew>:@@>,9qee6>>:>:@@>,wq>>,6rr,,ee>:@.>69wee6>>:>:@@>>",
"eq6>:>9w>>99>;.@:,wwe9>>6,6,@@>,qq,,:>q9>,99:*@@:>qeeq>>666,@@>>",
",,w9@.>>>:@. @;::>,,>>>6assa>:w066q9@@>>>:@. @;:>>>>>>>6aTTp,>qw",
">>ww@@,66,@.@$>>::,666:,sTTs82ww>>wq@@>66>@ @#>,::6666:6aTTs82we",
">,ew>>aTsp>,pae9@$pTTp@@wurufd2>>,we>>pTTp,>pae9@$pssp@@wttufd2,",
">6qq>6aTRs87asr0O%aRTa$@7qrefd,:>,qw>6sTTa77aat0$%aTRa$@9qeyfd::",
"ww,>>,rrttsa77ee45ette,:@$qw21.@9w,>>,erttsa76ee45ette>*@$9w21@.",
"e9>:>6qweess7,q055wweq>:.$9q7,&&99>:>6weetTa76ew550wwq>:.@9w7,$@",
",>.@99,6wrtuTa6>2>>,>>:>::>7asap6:@@9w66wrrtsa7>22>>>>>>::>6ssas",
">:@@9q,>wwweTa6,>:::,7:::>67sTTs6:@$9q>>wewesa7,>:::66:::>66sTTT",
">>99,,>>212,etew>:.&pp$.:6astrre>>99,>>:21,2erww>:@$pp@.:6asttrr",
",6wq::,61<::qwq97>$&ap&@:>asrere66wq>:,61<:>9w997>&&ap&@:6aareer",
"wq6>.@pa2:.@>:@&pTap7799>>66erreeq6>@@pa2:.$>:@&psaa7699>>66eree",
"ee>:@*aa6:@O:2@$aTTs6>996>>6qqqwee>:@*as7:..11.&aTTa6>q06,>6qwqq",
"re>6parreq>:fd1>etre,>,2qewq6>@@ww>6parrq9:1dd:>errr>>>,qweq6:@@",
"ee>6sTtrw9,2dd2>9q99:::2qeee>*.@we>6ssurq972df2>9qq9>:>2qeew>*@ ",
"ee,>euTa&$9q22>:@@@@ O4426e9@.*:we>,etTa&$9q22>:@.@@.O35,,w0@@;:",
"e9:>ersa$@qe>::*     O34>>w9@@,7ww>>wtTp$$qq>::*   . $33:,q9@@,6",
",>@@qrte>>w9$     *:::.$:>>>:,aa6:@@were>:eq$     *::*@O:>>>:,pT",
"6>@@9wwq72w9@.@@@$:>6>&@:>,>>,as9>.@9eew27q9@ $$$$:>6>&$:,,>>6aT",
"Tp,:>>,2dd2>:>paap66asap,>qq>,etsp>:>>,2dd2>:>paaa,,asap,,qq>,et",
"sa,>2,67gf7>>6aTRa>>aTRs2>qq,6eraa6>6668gf2>>6asTa>,aRTa6>qq,6ee",
"66>,asssuye9>>66rq@@erte>>>6weee76>,aTsauyeq>>67rq$$wrte,>>6wwer",
">:>6sRRTtere>>>>eq@@qeee>>>,wrew,:>6sRRTrree>>>>q9@.9rew>>>>eree"
};
