/* XPM */
static char *_18WEjkEM_L_1_1744470544[] = {
/* columns rows colors chars-per-pixel */
"64 64 88 1 ",
"  c #4301AE",
". c #4501B4",
"X c #4701BA",
"o c #4801BD",
"O c #4B01C3",
"+ c #4E01CB",
"@ c #5004C5",
"# c #5203CD",
"$ c #5807CE",
"% c #5708CC",
"& c #5A0BCF",
"* c #4F01D1",
"= c #5201D4",
"- c #5906D5",
"; c #5C0AD3",
": c #5401DB",
"> c #5A04DC",
", c #5D09DC",
"< c #610BDC",
"1 c #6611DC",
"2 c #6913DE",
"3 c #5601E2",
"4 c #5A02E5",
"5 c #5E09E1",
"6 c #5C01EC",
"7 c #5E01F2",
"8 c #5F01F8",
"9 c #6105E4",
"0 c #620AE4",
"q c #690FE5",
"w c #6203ED",
"e c #6904EF",
"r c #6509EC",
"t c #6A0CED",
"y c #6711E0",
"u c #6C13E5",
"i c #6F12ED",
"p c #7319E5",
"a c #7214ED",
"s c #7519EC",
"d c #7B1EEE",
"f c #6302F4",
"g c #6B04F6",
"h c #6709F3",
"j c #6B0BF4",
"k c #6502FC",
"l c #6B04FE",
"z c #6D09FD",
"x c #7105F2",
"c c #710DF6",
"v c #7304FE",
"b c #7B04FF",
"n c #730CFE",
"m c #7A0BFE",
"M c #6E10F2",
"N c #6F10FA",
"B c #7314F4",
"V c #7916F7",
"C c #7619F3",
"Z c #7B1CF4",
"A c #7511FD",
"S c #7B14FF",
"D c #7E1AFE",
"F c #7F20F1",
"G c #810AFF",
"H c #8017FF",
"J c #821CFF",
"K c #881FFF",
"L c #8423ED",
"P c #8223F3",
"I c #8927F7",
"U c #8C2BF4",
"Y c #8622FE",
"T c #8B24FF",
"R c #8E29FE",
"E c #932CFF",
"W c #982FFF",
"Q c #9631FF",
"! c #9A34FF",
"~ c #9E39FF",
"^ c #A036FF",
"/ c #A33CFF",
"( c #A83FFF",
") c #A641FF",
"_ c #AA43FF",
"` c #AE48FF",
"' c #B44CFF",
"] c #BA51FF",
/* pixels */
"O,DYE!s3OXXXXX+6cT`Z3oXXX+k6:*OOXXXXOgnJEEv4oXXXXoO3l)(n:XXXXO*6",
"o>mJTQPi=OooOO:fTQ(p*oXOO*k7663::*+OO4tJTEHt=@OXOO:rD_/l-XoXO*:7",
"o-lSYWQEh3OO+4fn_`W1OXOO#>llkkkk886:=O>SYE/Yl-#O+-fSQ_~l=oOO+47k",
"f64jDRQ!QUPCCUQ(`!n,OO+:6kvlllklklkff77lHTWQWUPjBZQ/_~I3+oO=3xvl",
"lf4hAJR!/!WYT~)`!If=O*:6kvbvvllzvnvlzkkkAJRQ~~WYYR)_)RC=+O=36bbv",
"zllkknDTEQ!/////DroO+6flbGmmnlnASSSAnlllkgYRE!!//)/!Rj6O*:kllbGm",
"Anzkf9jNDJTRTYJS9=O*3kllvg9--#$$;0zmDmvlkk<iDJYERYJC1-**37klve0<",
"SAnlk367gcVZSjf6OXO:7lllkw+o.   X+fcHDAzlfO>lgBZBjl>OOO:7kkkv3*o",
"AADAvl>OOOO@@OOXXO*6klf3*OX...XX...:lJJnnl3=OOOOOoOOOO*68k76:OX.",
"rBJSnl3OoXXXXX..X+6fl73=OXX..XXX.. +3VDSnzf=XXoXX.XXO+:fkk63+OX.",
"O<YJDl6=OXoXXXXXO*kkk:+oX....XXX....XfcYSnl>XXXXXX.XO=4lk7=OOoXX",
"X-nJDAlwOXXXXXoO+:lf6+OoXX.O+:+OX...X=qRJAv>XXXXXXXXO36vw=OOX.XX",
".=kJKAzkOXX.XooO*6lf:OXoXXO=363*OOX.XO<TJSn5XXXXXXXo+67k-oOX.Xo+",
" O6JTDnk+X...oO#6kl=X....O7kllkk3+XX..;ADDn0OX...XO#:fk6+.. .+>k",
".+6PTJAgO.XXoO++37k*X.. +>lllkk73*oXXX=nDJA0OXXXXo+#:kf+o...X>fl",
"X*6JTJAgo.ooOOOO367+XX..:fnvlk86:+XXXX$ADYA0OOXOooO+=f6X....owln",
"X*fPRJnkOXXXOXOO:36+XXXX6nEDk=*++OXooX;YYYA5XXXOXXo+=k6oXXXO=BSn",
"O-hYTJcfOXXXXXOO333OXXXXwA^Jk#OOooXXo+yQTJn,XXXXXXXO*k6ooXXO=ZTm",
"+0JTTJj3OOXXXXXO:3:OXXXXwJ'Tf#oXXXXXo6BQTDA5XXXXXXXO+ffoXXXO=UQT",
"6CWTYS0OOO*=::::787*XXXXwH]WA6=XX.o*6FRQYDk:X+=:33334kwOooXO#PQ(",
"AY!RKc<O+=446776kll-OXXO6S`!Tj9@OOO5NEQRYA7>+-66788k7lw#OOXXodE'",
"!QRYS346fllkklkklvbe3+OX=yQ)`^YkkfzY~QEYAg:68kklkkkllvv4:+OOowS_",
"QWYSz7fklznnzznzvbbl73:++-SQ`(QYYTYW!QTSzk6kkznnnnnnvbvgw6=+O-eT",
"TYDlklllzznnAAAcmnbll87:+*7Y!(___)~!QTDzkklklznAAAcAnnbblk6:O+-c",
"Aj-fllnmSAz5-##@#3lvblf6:*O,tSY^^!WYDgh7llnnSSck<@o@#3wvvlkw:++#",
"r4:glnAHBj6=OoX.o#6eglkk4:O*3raLLLdat668lvAAABt4#o..o*-wgllk6=+O",
"o=llnSJD5=X. XXX.XO+=kkl73+OOXXXO+OOOO>lnAJAg@oX.XXXXXoO:7llk4*o",
"o-lnAJBh=O..XXXXXXoO+3fkk7*+OXXXooOoo4fzmDDt=oX..XXXXXXX+36fl63O",
"O>vASYt3o..XoXXXX.XoO#3klf:+OX.XXXXXOglnDJA<X...XXoX.XX.O+:4l76+",
"3wnDJD<.X.XXXooOXX.XOO+=gk4:O..XXXXXOgvDPJf=. .X.X+OX....Xo=6kf:",
"6gAJJn-..XXO*::3:=oXXXOO4wf:*XXXoXXoOgnDYD:O...X+:3>:#O...XO:fk6",
"klSYJk=.XXX=4klll6+X...X=4l6:OXXXXXoOjnJYZO. XXo3klllf3XXXXXOwl8",
"lnDYDk:.XXX:78klllf#....X#k6:OOXOOOOOjAJTFX.XXO*68kkllf:O...X3f7",
"lvDYYk=XXXX:67kklll>oX...+l6=OOoOOoO+jDJTFoXXXO=678klnc6+....=36",
"kzHTTl>XXXX+*+:7lnDr:XXX.+l4*OOXXXXXOjAYRF#OXooO*:=4kYJl=XXXXO*3",
":rJTTD<oOXXOOX*3lDQM3OXXX#l6*Oo..XXXOjAJRR6*XXXoO+O:kERl-XXXXO*3",
"+,DYRRyOXOXXX.O4cJ/C3OXXX#l4=OO.oXoXOfnYETl3oXXoXXo-k!Qn-XXXXO=4",
"X-mJTQS7OXXXXO3kR/_Z3OXXX#lf33:=:=Ooo4jJTERM:X.XXX*6z_(z:XXX.*38",
"*>hDTQYD0:*:::tS/(Qu*OXO+-lf7766663:=:0DYEQPi>==*:5BE_~k=XXoO3fk",
"666VYRQ~Slk8klY~_!S;XXO=:4vlllkkllkk8*>vJTQQQnkkkkzR]_Q8=XO+=fvl",
"kkklAYEQQQQQ!!~_/Rh=O+37flbvzznnnvlllfffcJEWQQWQQ!!/_TB*++:3fbbv",
"lllklDYE!~/)__)~RZ6*+:6klvbvjhjznnzzllkfzAKRQ~(_`_`(!c4O+:6flbbv",
"nzllk6jDTEQQQ~RSr>O*38kkbblw3==6lnJSAnllf6vDRWQQ^^QYl=O+:7kvvvv6",
"DAnzkf5,1uBNCp2,++O37kkle9-=+oO##-<MASAzfw-<2iCAZsp<=OO:6kllkw-=",
"JJAzll:XO*663+OXXO*6kllk:OoX...X..o<nJSNlgOoO:683:OXXO+3fllk6*OX",
"fAJDnv-XXOOOOOOXO+6fl74:Oo...XXX. .X#cSAnvf-XOOOOoXXX+:8ll6:=OO.",
":rJDAn6=OXXXXXXXO:7kk4=+OX..XXXX....orBJSnl3XXXXXX.Xo=3kfw:*OOX.",
".-nSDnl7OXXXXXXO*3klf++OoX..X.XXX. .X:tTDAv>XXXXXX..o=4l6=Oo....",
".#kDJSngOoXoX.Xo:6k6=OooXXO-6443+oX..O,YJSn>XXXXXXXoO6fl3OXX..X:",
".O6DYDnk+XXooXoO:6l:OOXXXO=fkkk8:OX. .;YJJn,XXXXXXXO+flf=o.  X#7",
".+4FTSBl#ooOO+++68k*.XXXo=kllllk4=oXX @nJJAr+OOOOOO+:kf+o....6kk",
"X+6DTJnlOooOOOO+378*...X=9Svlf66:*oXX.%AJKA0OXXXXXO+:f6oX. .Xrll",
"X*7YRJnkOXXXXoOO366*. .XwnTAk>:=*+XXXX;SJKm0X.....o+=k6X. ..Otnn",
"o$lYRDN8+XXXXXXO363OXXXowm/Jg=+OOXXXOO0RRKn,XXXXXXX+:86XXX.O=ZJn",
"+5DRTDj6OXXXXOoO363OXXXowH_Yk#OoXXXXO>iQRYz>XXXOOOO*:76XXXXO=PWJ",
"7BQRYS,oXXXO+**:666#XXXowH'Tg:+XXXXO@jDEYDl3XXO+++*:3k7XXXXO#U(^",
"FRQRJn>O=:466767kkg:OooowS'(Wf4:*+:4rYRRJS-=*:3666w7flw++OXXOaE_",
"~QRYSl3#37kllkkklvv>#OOo4V(''Dzr5,jNAQQYDB+=46kkkklllvg:=*OoOrJ`",
"QETSj46kkllllnvlvvbk7:=+O-nQ`_)~Q!~~QQRFj88kklllnnzllvvvw3=OO3j(",
"ETSzkfllnnnnznzllvGvk63=+#9ZE()/~~~!QTFNlkklvnnAnlllvvbbg66:+*5Y",
"TDlkklvzASDnllkklvmvvlf3=++6cQ~!!!QRYDB8kllnASSSnlfkllvmvlk6*O+8",
"&,3kvnASnt%@O#@+##$wlllk3:O+=qMASSAj0$,klzADSN6%OOOO#=-wkllk7+O+",
"O*4gnmAVh>X..XXXXXO:ffklf:+OO=:6rww3=+:lznSVB6:.. ...XO:9glkk:*O",
"X-lnAJAz+.  .XXX..XO+:wvk7=OOoX.XooXo36vADTi:o...XX...XXO:kkl73O"
};
