/* XPM */
static char *_82f1bf7f364c3d_1_1744470150[] = {
/* columns rows colors chars-per-pixel */
"64 64 190 2 ",
"   c #6F3F2F",
".  c #6E3E2E",
"X  c #6E3F2F",
"o  c #6F4030",
"O  c #6F4031",
"+  c #663A2B",
"@  c #653A2B",
"#  c #653A2A",
"$  c #673C2D",
"%  c #6F4839",
"&  c #714A3B",
"*  c #71483A",
"=  c #64392A",
"-  c #653B2C",
";  c #6F493B",
":  c #714B3D",
">  c #663B2C",
",  c #6D3D2E",
"<  c #633829",
"1  c #653A2C",
"2  c #6F483A",
"3  c #704A3D",
"4  c #704A3C",
"5  c #70493B",
"6  c #6E4030",
"7  c #714030",
"8  c #7A4A39",
"9  c #7C4B3B",
"0  c #7B4A3A",
"q  c #734637",
"w  c #724636",
"e  c #744838",
"r  c #7C5445",
"t  c #7E5647",
"y  c #7D5446",
"u  c #7C4C3C",
"i  c #C28C7A",
"p  c #CE9885",
"a  c #CD9784",
"s  c #CC9684",
"d  c #CD9886",
"f  c #CD9785",
"g  c #DCA592",
"h  c #DBA491",
"j  c #DAA390",
"k  c #6D3E2E",
"l  c #7B4A39",
"z  c #7B4938",
"x  c #875443",
"c  c #CE9784",
"v  c #DAA28F",
"b  c #DAA28E",
"n  c #CA8D79",
"m  c #C98D79",
"M  c #CB8F7A",
"N  c #D59883",
"B  c #D79985",
"V  c #D69985",
"C  c #D79984",
"Z  c #D69883",
"A  c #D69782",
"S  c #D79982",
"D  c #D89982",
"F  c #D59781",
"G  c #D59681",
"H  c #DBA592",
"J  c #DBA492",
"K  c #D7A292",
"L  c #C08F8F",
"P  c #BC8C8F",
"I  c #BC8D8F",
"U  c #BF8E8D",
"Y  c #D39784",
"T  c #D28D77",
"R  c #D18D76",
"E  c #D69A85",
"W  c #F5E6E1",
"Q  c #FAF3F1",
"!  c #FAF3F0",
"~  c #FCF4F0",
"^  c #DFDEED",
"/  c #3559DC",
"(  c #1843D9",
")  c #1A44D9",
"_  c #1844DA",
"`  c #304FCF",
"'  c #D18C75",
"]  c #D18B74",
"[  c #D79A86",
"{  c #FAF2EF",
"}  c white",
"|  c #E0E8FD",
" . c #1D50E9",
".. c #0037E6",
"X. c #0038E6",
"o. c #0038E7",
"O. c #F9F1EE",
"+. c #E0E7FC",
"@. c #1F51E8",
"#. c #0037E5",
"$. c #0039E5",
"%. c #BD8D8F",
"&. c #D99983",
"*. c #D69884",
"=. c #F5E5E0",
"-. c #FBF2EF",
";. c #DEDCEC",
":. c #3458DA",
">. c #1742D7",
",. c #1943D8",
"<. c #1842D8",
"1. c #2E4CCC",
"2. c #B48686",
"3. c #C98F7B",
"4. c #D28E77",
"5. c #D39785",
"6. c #BC8583",
"7. c #B88282",
"8. c #B88283",
"9. c #B07D7C",
"0. c #815B50",
"q. c #795549",
"w. c #7A5549",
"e. c #D28C74",
"r. c #D38D74",
"t. c #D38D75",
"y. c #C6856E",
"u. c #795347",
"i. c #6B4B40",
"p. c #6C4B40",
"a. c #D28C75",
"s. c #C5846F",
"d. c #795447",
"f. c #6C4C41",
"g. c #6D4C41",
"h. c #D28D76",
"j. c #D38D76",
"k. c #C6856F",
"l. c #CE8A74",
"z. c #CF8A74",
"x. c #CD8973",
"c. c #C2826D",
"v. c #C1816C",
"b. c #C1826C",
"n. c #B87C67",
"m. c #7F584A",
"M. c #765246",
"N. c #775246",
"B. c #BF806A",
"V. c #BF806B",
"C. c #B27864",
"Z. c #66463A",
"A. c #593D33",
"S. c #5A3E34",
"D. c #5A3D34",
"F. c #65453A",
"G. c #A8715E",
"H. c #B37865",
"J. c #BC7E69",
"K. c #BD7E69",
"L. c #AE7561",
"P. c #573B32",
"I. c #48322A",
"U. c #49322A",
"Y. c #AF7562",
"T. c #BE7F6A",
"R. c #BD7F69",
"E. c #AE7562",
"W. c #583C32",
"Q. c #49322B",
"!. c #4A332B",
"~. c #BD7F6A",
"^. c #583C33",
"/. c #BA7C68",
"(. c #BB7D68",
"). c #AC7460",
"_. c #573C32",
"`. c #563B32",
"'. c #A26D5B",
"]. c #AB735F",
"[. c #AC7360",
"{. c #A06B59",
"}. c #563B31",
"|. c #49332B",
" X c #4C342C",
".X c #A9715E",
"XX c #AA715E",
"oX c #9D6958",
"OX c #553A31",
"+X c #9E6A58",
/* pixels */
"                                                                                                                                ",
"                                                                                                                                ",
"                                                                                                                                ",
"                                                                                                                                ",
"                                                                                                                                ",
"                                                                                                                                ",
"                                                                                                                                ",
"                                                . . . . . . . X o O O O O O O O O O O O O O O o                                 ",
"                                              . + @ @ @ @ @ # $ % & & & & & & & & & & & & & & * o                               ",
"                                              . @ = = = = = = - ; : : : : : : : : : : : : : : & O                               ",
"                                              . @ = = = = = = > ; : : : : : : : : : : : : : : & O                               ",
"                                              . @ = = = = = = > ; : : : : : : : : : : : : : : & O                               ",
"                                              . @ = = = = = = > ; : : : : : : : : : : : : : : & O                               ",
"                                              . @ = = = = = = > ; : : : : : : : : : : : : : : & O                               ",
"                . . . . . . . . . . . . . . . , = < < < < < < 1 2 3 4 4 4 4 4 4 4 4 4 4 4 4 4 5 6 . . . . . . .                 ",
"              7 8 9 9 9 9 9 9 9 9 9 9 9 9 9 9 0 q w w w w w w e r t t t t t t t t t t t t t t y u 9 9 9 9 9 9 8 7               ",
"            . 8 i p a a a a a a a a a a a a a a s s s s s s s s d d d d d d d d d d d d d d d d f a a a a a p i 8 .             ",
"            . 9 p g h h h h h h h h h h h h h h h h h h h h h h h h h h h h h h h h h h h h h h h h h h h h g p 9 .             ",
"            . 9 a h j j j j j j j j j j j j j j j j j j j j j j j j j j j j j j j j j j j j j j j j j j j j h a 9 .             ",
"            . 9 a h j j j j j j j j j j j j j j j j j j j j j j j j j j j j j j j j j j j j j j j j j j j j h a 9 .             ",
"            . 9 a h j j j j j j j j j j j j j j j j j j j j j j j j j j j j j j j j j j j j j j j j j j j j h a 9 .             ",
"            . 9 a h j j j j j j j j j j j j j j j j j j j j j j j j j j j j j j j j j j j j j j j j j j j j h a 9 .             ",
". . . . . . k 0 a h j j j j j j j j j j j j j j j j j j j j j j j j j j j j j j j j j j j j j j j j j j j j h a 0 k . . . . . . ",
"l l l l l l z x c v b b b b b b b b b b b b b b b b b b b b b b b b b b b b b b b b b b b b b b b b b b b b v c x z l l l l l l ",
"n n n n n n m M N B V V V V V V V V V V V V V V V V V V V V V V V V V V V V V V V V V V V V V V V V V V V V B N M m n n n n n n ",
"C C C C C C C C Z Z Z Z Z Z Z Z Z Z Z Z Z Z Z Z Z Z Z Z Z Z Z Z Z Z Z Z Z Z Z Z Z Z Z Z Z Z Z Z Z Z Z Z Z Z Z Z C C C C C C C C ",
"Z Z Z Z Z Z Z Z Z Z Z Z Z Z Z Z Z Z Z Z Z Z Z Z Z Z Z Z Z Z Z Z Z Z Z Z Z Z Z Z Z Z Z Z Z Z Z Z Z Z Z Z Z Z Z Z Z Z Z Z Z Z Z Z ",
"Z Z Z Z Z Z Z Z Z Z Z Z Z Z Z Z Z Z Z Z Z Z Z Z Z Z Z Z Z Z Z Z Z Z Z Z Z Z Z Z Z Z Z Z Z Z Z Z Z Z Z Z Z Z Z Z Z Z Z Z Z Z Z Z ",
"Z Z Z Z Z Z Z Z Z Z Z Z Z Z Z Z Z Z Z Z Z Z Z Z Z Z Z Z Z Z Z Z Z Z Z Z Z Z Z Z Z Z Z Z Z Z Z Z Z Z Z Z Z Z Z Z Z Z Z Z Z Z Z Z ",
"Z Z Z Z Z Z Z Z Z Z Z Z Z Z Z Z Z Z Z Z Z Z Z Z Z Z Z Z Z Z Z Z Z Z Z Z Z Z Z Z Z Z Z Z Z Z Z Z Z Z Z Z Z Z Z Z Z Z Z Z Z Z Z Z ",
"Z Z Z Z Z Z Z Z A A A A A A A A S D D D D D D S Z Z Z Z Z Z Z Z Z Z Z Z Z Z Z Z S D D D D D D S A A A A A A A A Z Z Z Z Z Z Z Z ",
"F F F F F F G Z j H J J J J H K L P I I I I P U Y Z Z Z Z Z Z Z Z Z Z Z Z Z Z Y U P I I I I P L K H J J J J H j Z G F F F F F F ",
"T T T T T T R E W Q ! ! ! ! ~ ^ / ( ) ) ) ) _ ` U S Z Z Z Z Z Z Z Z Z Z Z Z S U ` _ ) ) ) ) ( / ^ ~ ! ! ! ! Q W E R T T T T T T ",
"' ' ' ' ' ' ] [ { } } } } } } |  ...X.X.X.X.o._ P D Z Z Z Z Z Z Z Z Z Z Z Z D P _ o.X.X.X.X... .| } } } } } } { [ ] ' ' ' ' ' ' ",
"' ' ' ' ' ' ] [ O.} } } } } } +.@.#.$.$.$.$.X.) I D Z Z Z Z Z Z Z Z Z Z Z Z D I ) X.$.$.$.$.#.@.+.} } } } } } O.[ ] ' ' ' ' ' ' ",
"' ' ' ' ' ' ] [ O.} } } } } } +.@.#.$.$.$.$.X.) I D Z Z Z Z Z Z Z Z Z Z Z Z D I ) X.$.$.$.$.#.@.+.} } } } } } O.[ ] ' ' ' ' ' ' ",
"' ' ' ' ' ' ] [ O.} } } } } } +.@.#.$.$.$.$.X.) I D Z Z Z Z Z Z Z Z Z Z Z Z D I ) X.$.$.$.$.#.@.+.} } } } } } O.[ ] ' ' ' ' ' ' ",
"' ' ' ' ' ' ] [ O.} } } } } } +.@.#.$.$.$.$.X.) I D Z Z Z Z Z Z Z Z Z Z Z Z D I ) X.$.$.$.$.#.@.+.} } } } } } O.[ ] ' ' ' ' ' ' ",
"' ' ' ' ' ' ] [ { } } } } } } |  ...X.X.X.X.o._ %.&.C C C C C C C C C C C C &.%._ o.X.X.X.X... .| } } } } } } { [ ] ' ' ' ' ' ' ",
"' ' ' ' ' ' ] *.=.{ O.O.O.O.-.;.:.>.,.,.,.,.<.1.2.M 3.3.3.3.3.3.3.3.3.3.3.3.M 2.1.<.,.,.,.,.>.:.;.-.O.O.O.O.{ =.*.] ' ' ' ' ' ' ",
"' ' ' ' ' ' ' 4.*.[ [ [ [ [ [ 5.6.7.7.7.7.7.8.9.0.q.w.w.w.w.w.w.w.w.w.w.w.w.q.0.9.8.7.7.7.7.7.6.5.[ [ [ [ [ [ *.4.' ' ' ' ' ' ' ",
"' ' ' ' ' ' ' ' ] ] ] ] ] ] ] ] e.r.r.r.r.r.t.y.u.i.p.p.p.p.p.p.p.p.p.p.p.p.i.u.y.t.r.r.r.r.r.e.] ] ] ] ] ] ] ] ' ' ' ' ' ' ' ' ",
"' ' ' ' ' ' ' ' ' ' ' ' ' ' ' ' ' ' ' ' ' ' a.s.d.f.g.g.g.g.g.g.g.g.g.g.g.g.f.d.s.a.' ' ' ' ' ' ' ' ' ' ' ' ' ' ' ' ' ' ' ' ' ' ",
"' ' ' ' ' ' ' ' ' ' ' ' ' ' ' ' ' ' ' ' ' ' a.s.d.f.g.g.g.g.g.g.g.g.g.g.g.g.f.d.s.a.' ' ' ' ' ' ' ' ' ' ' ' ' ' ' ' ' ' ' ' ' ' ",
"' ' ' ' ' ' ' ' ' ' ' ' ' ' ' ' ' ' ' ' ' ' a.s.d.f.g.g.g.g.g.g.g.g.g.g.g.g.f.d.s.a.' ' ' ' ' ' ' ' ' ' ' ' ' ' ' ' ' ' ' ' ' ' ",
"' ' ' ' ' ' ' ' ' ' ' ' ' ' ' ' ' ' ' ' ' ' a.s.d.f.g.g.g.g.g.g.g.g.g.g.g.g.f.d.s.a.' ' ' ' ' ' ' ' ' ' ' ' ' ' ' ' ' ' ' ' ' ' ",
"' ' ' ' ' ' ' ' ' ' ' ' ' ' ' ' h.h.h.h.h.h.j.k.u.p.f.f.f.f.f.f.f.f.f.f.f.f.p.u.k.j.h.h.h.h.h.h.' ' ' ' ' ' ' ' ' ' ' ' ' ' ' ' ",
"l.l.l.l.l.l.l.l.l.l.l.l.l.l.z.x.c.v.v.v.v.v.b.n.m.M.N.N.N.N.N.N.N.N.N.N.N.N.M.m.n.b.v.v.v.v.v.c.x.z.l.l.l.l.l.l.l.l.l.l.l.l.l.l.",
"B.B.B.B.B.B.B.B.B.B.B.B.B.B.V.C.Z.A.S.S.S.S.D.F.G.H.C.C.C.C.C.C.C.C.C.C.C.C.H.G.F.D.S.S.S.S.A.Z.C.V.B.B.B.B.B.B.B.B.B.B.B.B.B.B.",
"J.J.J.J.J.J.J.J.J.J.J.J.J.J.K.L.P.I.U.U.U.U.I.P.Y.T.K.K.K.K.K.K.K.K.K.K.K.K.T.Y.P.I.U.U.U.U.I.P.L.K.J.J.J.J.J.J.J.J.J.J.J.J.J.J.",
"J.J.J.J.J.J.J.J.J.J.J.J.J.J.R.E.W.Q.!.!.!.!.Q.W.E.R.J.J.J.J.J.J.J.J.J.J.J.J.R.E.W.Q.!.!.!.!.Q.W.E.R.J.J.J.J.J.J.J.J.J.J.J.J.J.J.",
"J.J.J.J.J.J.J.J.J.J.J.J.J.J.R.E.W.Q.!.!.!.!.Q.W.E.R.J.J.J.J.J.J.J.J.J.J.J.J.R.E.W.Q.!.!.!.!.Q.W.E.R.J.J.J.J.J.J.J.J.J.J.J.J.J.J.",
"J.J.J.J.J.J.J.J.J.J.J.J.J.J.R.E.W.Q.!.!.!.!.Q.W.E.R.J.J.J.J.J.J.J.J.J.J.J.J.R.E.W.Q.!.!.!.!.Q.W.E.R.J.J.J.J.J.J.J.J.J.J.J.J.J.J.",
"J.J.J.J.J.J.J.J.J.J.J.J.J.J.R.E.W.Q.!.!.!.!.Q.W.E.R.J.J.J.J.J.J.J.J.J.J.J.J.R.E.W.Q.!.!.!.!.Q.W.E.R.J.J.J.J.J.J.J.J.J.J.J.J.J.J.",
"J.J.J.J.J.J.J.J.J.J.J.J.J.J.~.E.W.Q.!.!.!.!.Q.^.Y.T.R.R.R.R.R.R.R.R.R.R.R.R.T.Y.^.Q.!.!.!.!.Q.W.E.~.J.J.J.J.J.J.J.J.J.J.J.J.J.J.",
"/./././././././././././././.(.)._.Q.!.!.!.!.Q.`.'.Y.E.E.E.E.E.E.E.E.E.E.E.E.Y.'.`.Q.!.!.!.!.Q._.).(././././././././././././././.",
"].].].].].].].].].].].].].].[.{.}.|.!.!.!.!.!. X`.^.W.W.W.W.W.W.W.W.W.W.W.W.^.`. X!.!.!.!.!.|.}.{.[.].].].].].].].].].].].].].].",
".X.X.X.X.X.X.X.X.X.X.X.X.X.XXXoXOX|.!.!.!.!.!.!.Q.Q.Q.Q.Q.Q.Q.Q.Q.Q.Q.Q.Q.Q.Q.Q.!.!.!.!.!.!.|.OXoXXX.X.X.X.X.X.X.X.X.X.X.X.X.X.X",
".X.X.X.X.X.X.X.X.X.X.X.X.X.XXX+XOX|.!.!.!.!.!.!.!.!.!.!.!.!.!.!.!.!.!.!.!.!.!.!.!.!.!.!.!.!.|.OX+XXX.X.X.X.X.X.X.X.X.X.X.X.X.X.X",
".X.X.X.X.X.X.X.X.X.X.X.X.X.XXX+XOX|.!.!.!.!.!.!.!.!.!.!.!.!.!.!.!.!.!.!.!.!.!.!.!.!.!.!.!.!.|.OX+XXX.X.X.X.X.X.X.X.X.X.X.X.X.X.X",
".X.X.X.X.X.X.X.X.X.X.X.X.X.XXX+XOX|.!.!.!.!.!.!.!.!.!.!.!.!.!.!.!.!.!.!.!.!.!.!.!.!.!.!.!.!.|.OX+XXX.X.X.X.X.X.X.X.X.X.X.X.X.X.X",
".X.X.X.X.X.X.X.X.X.X.X.X.X.XXX+XOX|.!.!.!.!.!.!.!.!.!.!.!.!.!.!.!.!.!.!.!.!.!.!.!.!.!.!.!.!.|.OX+XXX.X.X.X.X.X.X.X.X.X.X.X.X.X.X",
".X.X.X.X.X.X.X.X.X.X.X.X.X.XXX+XOX|.!.!.!.!.!.!.!.!.!.!.!.!.!.!.!.!.!.!.!.!.!.!.!.!.!.!.!.!.|.OX+XXX.X.X.X.X.X.X.X.X.X.X.X.X.X.X",
".X.X.X.X.X.X.X.X.X.X.X.X.X.XXX+XOX|.!.!.!.!.!.!.!.!.!.!.!.!.!.!.!.!.!.!.!.!.!.!.!.!.!.!.!.!.|.OX+XXX.X.X.X.X.X.X.X.X.X.X.X.X.X.X"
};
